<svg width="19" height="19" viewBox="0 0 19 19" fill="none" xmlns="http://www.w3.org/2000/svg">
<path d="M8.43921 1.56738C8.87891 0.623788 10.2202 0.62379 10.6599 1.56738L12.0994 4.65527C12.4237 5.35085 13.0836 5.83049 13.8455 5.92383L17.2263 6.33789C18.2596 6.46449 18.6744 7.74043 17.9128 8.4502L15.4207 10.7725C14.859 11.2959 14.607 12.0726 14.7537 12.8262L15.405 16.1699C15.6037 17.1915 14.5184 17.9801 13.6082 17.4756L10.6287 15.8232C9.9573 15.4509 9.14182 15.4509 8.47046 15.8232L5.49097 17.4756C4.58075 17.9801 3.49543 17.1915 3.69409 16.1699L4.34546 12.8262C4.49214 12.0726 4.24008 11.2959 3.67847 10.7725L1.18628 8.4502C0.424745 7.74043 0.839516 6.46449 1.8728 6.33789L5.25366 5.92383C6.01548 5.83049 6.6754 5.35085 6.99976 4.65527L8.43921 1.56738Z" stroke="#FFB547"/>
</svg>
